<svg xmlns="http://www.w3.org/2000/svg" viewBox="0 0 800 500" role="img" aria-label="Trade colonialism illustration">
  <defs>
    <linearGradient id="bg5" x1="0" y1="0" x2="1" y2="1">
      <stop offset="0%" stop-color="#081214" />
      <stop offset="100%" stop-color="#1b2a3b" />
    </linearGradient>
    <linearGradient id="amber" x1="0" y1="0" x2="1" y2="1">
      <stop offset="0%" stop-color="#fb923c" />
      <stop offset="100%" stop-color="#f97316" />
    </linearGradient>
  </defs>
  <rect width="800" height="500" rx="32" fill="url(#bg5)" />
  <circle cx="600" cy="120" r="80" fill="rgba(248, 113, 113, 0.12)" />
  <path d="M120 360h560" stroke="rgba(255,255,255,0.08)" stroke-width="14" stroke-linecap="round" />
  <path d="M140 320c65-100 115-150 190-150 60 0 110 40 180 120 45 52 85 80 130 80" fill="none" stroke="rgba(251, 146, 60, 0.18)" stroke-width="18" stroke-linecap="round" />
  <rect x="160" y="240" width="120" height="70" rx="16" fill="rgba(255,255,255,0.05)" />
  <rect x="340" y="220" width="140" height="90" rx="16" fill="rgba(255,255,255,0.06)" />
  <rect x="540" y="200" width="120" height="110" rx="16" fill="url(#amber)" opacity="0.9" />
  <path d="M200 280l70-70 60 50 78-82 62 76" fill="none" stroke="#f97316" stroke-width="12" stroke-linecap="round" stroke-linejoin="round" opacity="0.85" />
  <text x="400" y="444" text-anchor="middle" font-family="Inter, sans-serif" font-size="38" font-weight="700" fill="#fdba74">Trade & Colonialism</text>
</svg>