<svg xmlns="http://www.w3.org/2000/svg" viewBox="0 0 800 500" role="img" aria-label="Currency history illustration">
  <defs>
    <linearGradient id="bg2" x1="0" y1="0" x2="1" y2="1">
      <stop offset="0%" stop-color="#02101f" />
      <stop offset="100%" stop-color="#0b2840" />
    </linearGradient>
    <linearGradient id="cyan" x1="0" y1="0" x2="1" y2="1">
      <stop offset="0%" stop-color="#06b6d4" />
      <stop offset="100%" stop-color="#0e7490" />
    </linearGradient>
  </defs>
  <rect width="800" height="500" rx="32" fill="url(#bg2)" />
  <circle cx="620" cy="120" r="90" fill="rgba(255,255,255,0.04)" />
  <path d="M100 380h600" stroke="rgba(255,255,255,0.08)" stroke-width="12" stroke-linecap="round" />
  <path d="M120 315h120v-80h-120z" fill="rgba(8, 145, 178, 0.16)" />
  <path d="M280 290h120v-110h-120z" fill="rgba(14, 116, 144, 0.16)" />
  <path d="M460 240h120v-170h-120z" fill="rgba(2, 132, 199, 0.16)" />
  <path d="M620 270h80v-125h-80z" fill="rgba(10, 132, 185, 0.22)" />
  <rect x="110" y="210" width="120" height="70" rx="18" fill="url(#cyan)" opacity="0.9" />
  <rect x="270" y="180" width="120" height="100" rx="18" fill="url(#cyan)" opacity="0.85" />
  <rect x="450" y="120" width="120" height="160" rx="18" fill="rgba(255,255,255,0.08)" />
  <rect x="610" y="145" width="80" height="125" rx="18" fill="#0ea5e9" opacity="0.9" />
  <path d="M120 380c120-120 250-140 400-90 90 30 180 80 270 90" fill="none" stroke="#22d3ee" stroke-width="10" opacity="0.45" stroke-linecap="round" />
  <text x="400" y="440" text-anchor="middle" font-family="Inter, sans-serif" font-size="38" font-weight="700" fill="#9de3ff">Currency History</text>
</svg>