<svg xmlns="http://www.w3.org/2000/svg" viewBox="0 0 800 500" role="img" aria-label="Tulip Mania illustration">
  <defs>
    <linearGradient id="bg1" x1="0" y1="0" x2="1" y2="1">
      <stop offset="0%" stop-color="#07101f" />
      <stop offset="100%" stop-color="#12263b" />
    </linearGradient>
    <linearGradient id="gold" x1="0" y1="0" x2="1" y2="1">
      <stop offset="0%" stop-color="#facc15" />
      <stop offset="100%" stop-color="#f59e0b" />
    </linearGradient>
  </defs>
  <rect width="800" height="500" rx="32" fill="url(#bg1)" />
  <rect x="48" y="48" width="704" height="404" rx="28" fill="rgba(11, 25, 42, 0.85)" />
  <path d="M140 360c100-220 190-240 280-180 110 70 180 200 240 120" fill="none" stroke="rgba(250, 204, 21, 0.18)" stroke-width="18" stroke-linecap="round" />
  <path d="M150 355c90-190 170-210 250-170 80 36 150 130 205 90" fill="none" stroke="url(#gold)" stroke-width="14" stroke-linecap="round" />
  <g opacity="0.9">
    <circle cx="230" cy="220" r="40" fill="#0f172a" />
    <circle cx="240" cy="215" r="10" fill="#facc15" />
    <circle cx="340" cy="165" r="12" fill="#f59e0b" />
    <circle cx="460" cy="200" r="18" fill="#fde68a" />
  </g>
  <path d="M230 360c0-70 30-92 40-112 18-34 42-46 72-48 40-2 70 20 92 52" fill="none" stroke="#c2410c" stroke-width="12" stroke-linecap="round" opacity="0.35" />
  <text x="400" y="432" text-anchor="middle" font-family="Inter, sans-serif" font-size="38" font-weight="700" fill="#e2c044">Tulip Mania</text>
</svg>